<mxfile host="app.diagrams.net" modified="2024-05-08T22:18:36.245Z" agent="Mozilla/5.0 (Windows NT 10.0; Win64; x64; rv:125.0) Gecko/20100101 Firefox/125.0" etag="wgXxrgXSzB3vSJ5_50HG" version="24.3.0" type="github">
  <diagram id="C5RBs43oDa-KdzZeNtuy" name="Page-1">
    <mxGraphModel dx="1594" dy="1126" grid="1" gridSize="10" guides="1" tooltips="1" connect="1" arrows="1" fold="1" page="0" pageScale="1" pageWidth="827" pageHeight="1169" math="0" shadow="0">
      <root>
        <mxCell id="WIyWlLk6GJQsqaUBKTNV-0" />
        <mxCell id="WIyWlLk6GJQsqaUBKTNV-1" parent="WIyWlLk6GJQsqaUBKTNV-0" />
        <mxCell id="WIyWlLk6GJQsqaUBKTNV-2" value="" style="rounded=0;html=1;jettySize=auto;orthogonalLoop=1;fontSize=11;endArrow=block;endFill=0;endSize=8;strokeWidth=1;shadow=0;labelBackgroundColor=none;edgeStyle=orthogonalEdgeStyle;" parent="WIyWlLk6GJQsqaUBKTNV-1" source="WIyWlLk6GJQsqaUBKTNV-3" target="WIyWlLk6GJQsqaUBKTNV-6" edge="1">
          <mxGeometry relative="1" as="geometry" />
        </mxCell>
        <mxCell id="WIyWlLk6GJQsqaUBKTNV-3" value="Lamp doesn&#39;t work" style="rounded=1;whiteSpace=wrap;html=1;fontSize=12;glass=0;strokeWidth=1;shadow=0;" parent="WIyWlLk6GJQsqaUBKTNV-1" vertex="1">
          <mxGeometry x="-420" y="230" width="120" height="40" as="geometry" />
        </mxCell>
        <mxCell id="WIyWlLk6GJQsqaUBKTNV-4" value="Yes" style="rounded=0;html=1;jettySize=auto;orthogonalLoop=1;fontSize=11;endArrow=block;endFill=0;endSize=8;strokeWidth=1;shadow=0;labelBackgroundColor=none;edgeStyle=orthogonalEdgeStyle;" parent="WIyWlLk6GJQsqaUBKTNV-1" source="WIyWlLk6GJQsqaUBKTNV-6" target="WIyWlLk6GJQsqaUBKTNV-10" edge="1">
          <mxGeometry y="20" relative="1" as="geometry">
            <mxPoint as="offset" />
          </mxGeometry>
        </mxCell>
        <mxCell id="WIyWlLk6GJQsqaUBKTNV-5" value="No" style="edgeStyle=orthogonalEdgeStyle;rounded=0;html=1;jettySize=auto;orthogonalLoop=1;fontSize=11;endArrow=block;endFill=0;endSize=8;strokeWidth=1;shadow=0;labelBackgroundColor=none;" parent="WIyWlLk6GJQsqaUBKTNV-1" source="WIyWlLk6GJQsqaUBKTNV-6" target="WIyWlLk6GJQsqaUBKTNV-7" edge="1">
          <mxGeometry y="10" relative="1" as="geometry">
            <mxPoint as="offset" />
          </mxGeometry>
        </mxCell>
        <mxCell id="WIyWlLk6GJQsqaUBKTNV-6" value="Lamp&lt;br&gt;plugged in?" style="rhombus;whiteSpace=wrap;html=1;shadow=0;fontFamily=Helvetica;fontSize=12;align=center;strokeWidth=1;spacing=6;spacingTop=-4;" parent="WIyWlLk6GJQsqaUBKTNV-1" vertex="1">
          <mxGeometry x="-410" y="320" width="100" height="80" as="geometry" />
        </mxCell>
        <mxCell id="WIyWlLk6GJQsqaUBKTNV-7" value="Plug in lamp" style="rounded=1;whiteSpace=wrap;html=1;fontSize=12;glass=0;strokeWidth=1;shadow=0;" parent="WIyWlLk6GJQsqaUBKTNV-1" vertex="1">
          <mxGeometry x="-260" y="340" width="120" height="40" as="geometry" />
        </mxCell>
        <mxCell id="WIyWlLk6GJQsqaUBKTNV-8" value="No" style="rounded=0;html=1;jettySize=auto;orthogonalLoop=1;fontSize=11;endArrow=block;endFill=0;endSize=8;strokeWidth=1;shadow=0;labelBackgroundColor=none;edgeStyle=orthogonalEdgeStyle;" parent="WIyWlLk6GJQsqaUBKTNV-1" source="WIyWlLk6GJQsqaUBKTNV-10" target="WIyWlLk6GJQsqaUBKTNV-11" edge="1">
          <mxGeometry x="0.3333" y="20" relative="1" as="geometry">
            <mxPoint as="offset" />
          </mxGeometry>
        </mxCell>
        <mxCell id="WIyWlLk6GJQsqaUBKTNV-9" value="Yes" style="edgeStyle=orthogonalEdgeStyle;rounded=0;html=1;jettySize=auto;orthogonalLoop=1;fontSize=11;endArrow=block;endFill=0;endSize=8;strokeWidth=1;shadow=0;labelBackgroundColor=none;" parent="WIyWlLk6GJQsqaUBKTNV-1" source="WIyWlLk6GJQsqaUBKTNV-10" target="WIyWlLk6GJQsqaUBKTNV-12" edge="1">
          <mxGeometry y="10" relative="1" as="geometry">
            <mxPoint as="offset" />
          </mxGeometry>
        </mxCell>
        <mxCell id="WIyWlLk6GJQsqaUBKTNV-10" value="Bulb&lt;br&gt;burned out?" style="rhombus;whiteSpace=wrap;html=1;shadow=0;fontFamily=Helvetica;fontSize=12;align=center;strokeWidth=1;spacing=6;spacingTop=-4;" parent="WIyWlLk6GJQsqaUBKTNV-1" vertex="1">
          <mxGeometry x="-410" y="440" width="100" height="80" as="geometry" />
        </mxCell>
        <mxCell id="WIyWlLk6GJQsqaUBKTNV-11" value="Repair Lamp" style="rounded=1;whiteSpace=wrap;html=1;fontSize=12;glass=0;strokeWidth=1;shadow=0;" parent="WIyWlLk6GJQsqaUBKTNV-1" vertex="1">
          <mxGeometry x="-420" y="580" width="120" height="40" as="geometry" />
        </mxCell>
        <mxCell id="WIyWlLk6GJQsqaUBKTNV-12" value="Replace Bulb" style="rounded=1;whiteSpace=wrap;html=1;fontSize=12;glass=0;strokeWidth=1;shadow=0;" parent="WIyWlLk6GJQsqaUBKTNV-1" vertex="1">
          <mxGeometry x="-260" y="460" width="120" height="40" as="geometry" />
        </mxCell>
        <mxCell id="cGUAd-4T3Jj6xi8aEvbd-7" style="edgeStyle=orthogonalEdgeStyle;rounded=0;orthogonalLoop=1;jettySize=auto;html=1;exitX=0.5;exitY=1;exitDx=0;exitDy=0;exitPerimeter=0;entryX=0.5;entryY=0;entryDx=0;entryDy=0;" edge="1" parent="WIyWlLk6GJQsqaUBKTNV-1" source="cGUAd-4T3Jj6xi8aEvbd-0" target="cGUAd-4T3Jj6xi8aEvbd-4">
          <mxGeometry relative="1" as="geometry" />
        </mxCell>
        <mxCell id="cGUAd-4T3Jj6xi8aEvbd-0" value="" style="strokeWidth=2;html=1;shape=mxgraph.flowchart.start_2;whiteSpace=wrap;" vertex="1" parent="WIyWlLk6GJQsqaUBKTNV-1">
          <mxGeometry x="2.5" y="-90" width="50" height="50" as="geometry" />
        </mxCell>
        <mxCell id="cGUAd-4T3Jj6xi8aEvbd-4" value="&lt;div&gt;Klasa Javova&lt;/div&gt;" style="shape=parallelogram;html=1;strokeWidth=2;perimeter=parallelogramPerimeter;whiteSpace=wrap;rounded=1;arcSize=12;size=0.23;" vertex="1" parent="WIyWlLk6GJQsqaUBKTNV-1">
          <mxGeometry x="-36.25" y="-10" width="127.5" height="60" as="geometry" />
        </mxCell>
        <mxCell id="cGUAd-4T3Jj6xi8aEvbd-19" style="edgeStyle=orthogonalEdgeStyle;rounded=0;orthogonalLoop=1;jettySize=auto;html=1;exitX=0.5;exitY=1;exitDx=0;exitDy=0;exitPerimeter=0;entryX=0.25;entryY=0;entryDx=0;entryDy=0;" edge="1" parent="WIyWlLk6GJQsqaUBKTNV-1" source="cGUAd-4T3Jj6xi8aEvbd-11" target="cGUAd-4T3Jj6xi8aEvbd-16">
          <mxGeometry relative="1" as="geometry" />
        </mxCell>
        <mxCell id="cGUAd-4T3Jj6xi8aEvbd-11" value="Dla każdej metody" style="html=1;dashed=0;whiteSpace=wrap;shape=mxgraph.dfd.loop" vertex="1" parent="WIyWlLk6GJQsqaUBKTNV-1">
          <mxGeometry x="-36.25000000000001" y="70" width="123.75" height="30" as="geometry" />
        </mxCell>
        <mxCell id="cGUAd-4T3Jj6xi8aEvbd-12" style="edgeStyle=orthogonalEdgeStyle;rounded=0;orthogonalLoop=1;jettySize=auto;html=1;exitX=0.5;exitY=1;exitDx=0;exitDy=0;entryX=0.5;entryY=0;entryDx=0;entryDy=0;entryPerimeter=0;" edge="1" parent="WIyWlLk6GJQsqaUBKTNV-1" source="cGUAd-4T3Jj6xi8aEvbd-4" target="cGUAd-4T3Jj6xi8aEvbd-11">
          <mxGeometry relative="1" as="geometry" />
        </mxCell>
        <mxCell id="cGUAd-4T3Jj6xi8aEvbd-16" value="" style="swimlane;startSize=0;fillColor=#6d8764;fontColor=#ffffff;strokeColor=#3A5431;" vertex="1" parent="WIyWlLk6GJQsqaUBKTNV-1">
          <mxGeometry x="-80" y="140" width="1630" height="1000" as="geometry">
            <mxRectangle x="-70" y="140" width="50" height="40" as="alternateBounds" />
          </mxGeometry>
        </mxCell>
        <mxCell id="cGUAd-4T3Jj6xi8aEvbd-22" style="edgeStyle=orthogonalEdgeStyle;rounded=0;orthogonalLoop=1;jettySize=auto;html=1;exitX=0.5;exitY=1;exitDx=0;exitDy=0;entryX=1;entryY=0.5;entryDx=0;entryDy=0;" edge="1" parent="cGUAd-4T3Jj6xi8aEvbd-16" source="cGUAd-4T3Jj6xi8aEvbd-14" target="cGUAd-4T3Jj6xi8aEvbd-13">
          <mxGeometry relative="1" as="geometry" />
        </mxCell>
        <mxCell id="cGUAd-4T3Jj6xi8aEvbd-14" value="&lt;div&gt;TODO&lt;/div&gt;&lt;div&gt;Od wielkiej litery, prócz pierwszego???&lt;br&gt;&lt;/div&gt;" style="text;html=1;whiteSpace=wrap;overflow=hidden;rounded=0;fillColor=#fa6800;fontColor=#000000;strokeColor=#C73500;" vertex="1" parent="cGUAd-4T3Jj6xi8aEvbd-16">
          <mxGeometry x="200" y="10" width="120" height="65" as="geometry" />
        </mxCell>
        <mxCell id="cGUAd-4T3Jj6xi8aEvbd-13" value="&lt;div&gt;Podzielenie nazwy na tokeny.&lt;/div&gt;&lt;div&gt;Każdy token zaczyna się od wielkiej litery&lt;br&gt;&lt;/div&gt;" style="rounded=1;whiteSpace=wrap;html=1;absoluteArcSize=1;arcSize=14;strokeWidth=2;" vertex="1" parent="cGUAd-4T3Jj6xi8aEvbd-16">
          <mxGeometry x="59.69" y="80" width="170.62" height="70" as="geometry" />
        </mxCell>
        <mxCell id="cGUAd-4T3Jj6xi8aEvbd-23" style="edgeStyle=orthogonalEdgeStyle;rounded=0;orthogonalLoop=1;jettySize=auto;html=1;exitX=0.5;exitY=1;exitDx=0;exitDy=0;exitPerimeter=0;entryX=0.5;entryY=0;entryDx=0;entryDy=0;" edge="1" parent="cGUAd-4T3Jj6xi8aEvbd-16" source="cGUAd-4T3Jj6xi8aEvbd-20" target="cGUAd-4T3Jj6xi8aEvbd-13">
          <mxGeometry relative="1" as="geometry" />
        </mxCell>
        <mxCell id="cGUAd-4T3Jj6xi8aEvbd-20" value="" style="strokeWidth=2;html=1;shape=mxgraph.flowchart.start_2;whiteSpace=wrap;" vertex="1" parent="cGUAd-4T3Jj6xi8aEvbd-16">
          <mxGeometry x="120" y="10" width="50" height="50" as="geometry" />
        </mxCell>
        <mxCell id="cGUAd-4T3Jj6xi8aEvbd-28" style="edgeStyle=orthogonalEdgeStyle;rounded=0;orthogonalLoop=1;jettySize=auto;html=1;exitX=0.5;exitY=1;exitDx=0;exitDy=0;exitPerimeter=0;entryX=0.5;entryY=0;entryDx=0;entryDy=0;" edge="1" parent="cGUAd-4T3Jj6xi8aEvbd-16" source="cGUAd-4T3Jj6xi8aEvbd-25" target="cGUAd-4T3Jj6xi8aEvbd-27">
          <mxGeometry relative="1" as="geometry" />
        </mxCell>
        <mxCell id="cGUAd-4T3Jj6xi8aEvbd-25" value="Dla każdego tokenu" style="html=1;dashed=0;whiteSpace=wrap;shape=mxgraph.dfd.loop" vertex="1" parent="cGUAd-4T3Jj6xi8aEvbd-16">
          <mxGeometry x="75" y="170" width="140" height="30" as="geometry" />
        </mxCell>
        <mxCell id="cGUAd-4T3Jj6xi8aEvbd-26" style="edgeStyle=orthogonalEdgeStyle;rounded=0;orthogonalLoop=1;jettySize=auto;html=1;exitX=0.5;exitY=1;exitDx=0;exitDy=0;entryX=0.5;entryY=0;entryDx=0;entryDy=0;entryPerimeter=0;" edge="1" parent="cGUAd-4T3Jj6xi8aEvbd-16" source="cGUAd-4T3Jj6xi8aEvbd-13" target="cGUAd-4T3Jj6xi8aEvbd-25">
          <mxGeometry relative="1" as="geometry" />
        </mxCell>
        <mxCell id="cGUAd-4T3Jj6xi8aEvbd-27" value="" style="swimlane;startSize=0;fillColor=#6d8764;fontColor=#ffffff;strokeColor=#3A5431;" vertex="1" parent="cGUAd-4T3Jj6xi8aEvbd-16">
          <mxGeometry x="43.75" y="230" width="1445" height="680" as="geometry" />
        </mxCell>
        <mxCell id="cGUAd-4T3Jj6xi8aEvbd-32" style="edgeStyle=orthogonalEdgeStyle;rounded=0;orthogonalLoop=1;jettySize=auto;html=1;exitX=0.5;exitY=1;exitDx=0;exitDy=0;exitPerimeter=0;entryX=0.5;entryY=0;entryDx=0;entryDy=0;" edge="1" parent="cGUAd-4T3Jj6xi8aEvbd-27" source="cGUAd-4T3Jj6xi8aEvbd-30" target="cGUAd-4T3Jj6xi8aEvbd-31">
          <mxGeometry relative="1" as="geometry" />
        </mxCell>
        <mxCell id="cGUAd-4T3Jj6xi8aEvbd-30" value="" style="strokeWidth=2;html=1;shape=mxgraph.flowchart.start_2;whiteSpace=wrap;" vertex="1" parent="cGUAd-4T3Jj6xi8aEvbd-27">
          <mxGeometry x="247.5" y="20" width="50" height="50" as="geometry" />
        </mxCell>
        <mxCell id="cGUAd-4T3Jj6xi8aEvbd-50" value="" style="edgeStyle=orthogonalEdgeStyle;rounded=0;orthogonalLoop=1;jettySize=auto;html=1;" edge="1" parent="cGUAd-4T3Jj6xi8aEvbd-27" source="cGUAd-4T3Jj6xi8aEvbd-31">
          <mxGeometry relative="1" as="geometry">
            <mxPoint x="142.5" y="130" as="targetPoint" />
          </mxGeometry>
        </mxCell>
        <mxCell id="cGUAd-4T3Jj6xi8aEvbd-51" value="NIE" style="edgeLabel;html=1;align=center;verticalAlign=middle;resizable=0;points=[];" vertex="1" connectable="0" parent="cGUAd-4T3Jj6xi8aEvbd-50">
          <mxGeometry x="-0.0091" relative="1" as="geometry">
            <mxPoint as="offset" />
          </mxGeometry>
        </mxCell>
        <mxCell id="cGUAd-4T3Jj6xi8aEvbd-56" style="edgeStyle=orthogonalEdgeStyle;rounded=0;orthogonalLoop=1;jettySize=auto;html=1;entryX=0;entryY=0.5;entryDx=0;entryDy=0;" edge="1" parent="cGUAd-4T3Jj6xi8aEvbd-27" source="cGUAd-4T3Jj6xi8aEvbd-31" target="cGUAd-4T3Jj6xi8aEvbd-55">
          <mxGeometry relative="1" as="geometry" />
        </mxCell>
        <mxCell id="cGUAd-4T3Jj6xi8aEvbd-31" value="Czy rozpoznaje nazwę tokenu" style="rhombus;whiteSpace=wrap;html=1;shadow=0;fontFamily=Helvetica;fontSize=12;align=center;strokeWidth=1;spacing=6;spacingTop=-4;" vertex="1" parent="cGUAd-4T3Jj6xi8aEvbd-27">
          <mxGeometry x="220" y="90" width="120" height="80" as="geometry" />
        </mxCell>
        <mxCell id="cGUAd-4T3Jj6xi8aEvbd-38" value="" style="edgeStyle=orthogonalEdgeStyle;rounded=0;orthogonalLoop=1;jettySize=auto;html=1;" edge="1" parent="cGUAd-4T3Jj6xi8aEvbd-27" source="cGUAd-4T3Jj6xi8aEvbd-36" target="cGUAd-4T3Jj6xi8aEvbd-37">
          <mxGeometry relative="1" as="geometry" />
        </mxCell>
        <mxCell id="cGUAd-4T3Jj6xi8aEvbd-39" value="TAK" style="edgeLabel;html=1;align=center;verticalAlign=middle;resizable=0;points=[];" vertex="1" connectable="0" parent="cGUAd-4T3Jj6xi8aEvbd-38">
          <mxGeometry x="-0.1547" y="-2" relative="1" as="geometry">
            <mxPoint as="offset" />
          </mxGeometry>
        </mxCell>
        <mxCell id="cGUAd-4T3Jj6xi8aEvbd-42" value="" style="edgeStyle=orthogonalEdgeStyle;rounded=0;orthogonalLoop=1;jettySize=auto;html=1;" edge="1" parent="cGUAd-4T3Jj6xi8aEvbd-27" source="cGUAd-4T3Jj6xi8aEvbd-36" target="cGUAd-4T3Jj6xi8aEvbd-41">
          <mxGeometry relative="1" as="geometry" />
        </mxCell>
        <mxCell id="cGUAd-4T3Jj6xi8aEvbd-43" value="&lt;div&gt;NIE&lt;/div&gt;" style="edgeLabel;html=1;align=center;verticalAlign=middle;resizable=0;points=[];" vertex="1" connectable="0" parent="cGUAd-4T3Jj6xi8aEvbd-42">
          <mxGeometry x="-0.5318" relative="1" as="geometry">
            <mxPoint as="offset" />
          </mxGeometry>
        </mxCell>
        <mxCell id="cGUAd-4T3Jj6xi8aEvbd-36" value="Czy ma atrybuty?" style="rhombus;whiteSpace=wrap;html=1;shadow=0;fontFamily=Helvetica;fontSize=12;align=center;strokeWidth=1;spacing=6;spacingTop=-4;" vertex="1" parent="cGUAd-4T3Jj6xi8aEvbd-27">
          <mxGeometry x="937.65" y="97.5" width="100" height="80" as="geometry" />
        </mxCell>
        <mxCell id="cGUAd-4T3Jj6xi8aEvbd-47" value="" style="edgeStyle=orthogonalEdgeStyle;rounded=0;orthogonalLoop=1;jettySize=auto;html=1;" edge="1" parent="cGUAd-4T3Jj6xi8aEvbd-27" source="cGUAd-4T3Jj6xi8aEvbd-37" target="cGUAd-4T3Jj6xi8aEvbd-46">
          <mxGeometry relative="1" as="geometry" />
        </mxCell>
        <mxCell id="cGUAd-4T3Jj6xi8aEvbd-37" value="&lt;div&gt;Zapisz, przetwarzany token&lt;/div&gt;&lt;div&gt;do zmiennej (aby nie zgubić)&lt;br&gt;&lt;/div&gt;" style="whiteSpace=wrap;html=1;shadow=0;strokeWidth=1;spacing=6;spacingTop=-4;" vertex="1" parent="cGUAd-4T3Jj6xi8aEvbd-27">
          <mxGeometry x="1107.65" y="107.5" width="120" height="60" as="geometry" />
        </mxCell>
        <mxCell id="cGUAd-4T3Jj6xi8aEvbd-41" value="&lt;div&gt;Wygeneruj kod z&lt;/div&gt;&lt;div&gt;pola &quot;aktualna generacja&quot;&lt;br&gt;&lt;/div&gt;" style="whiteSpace=wrap;html=1;shadow=0;strokeWidth=1;spacing=6;spacingTop=-4;" vertex="1" parent="cGUAd-4T3Jj6xi8aEvbd-27">
          <mxGeometry x="927.65" y="237.5" width="120" height="60" as="geometry" />
        </mxCell>
        <mxCell id="cGUAd-4T3Jj6xi8aEvbd-45" style="edgeStyle=orthogonalEdgeStyle;rounded=0;orthogonalLoop=1;jettySize=auto;html=1;exitX=0.5;exitY=1;exitDx=0;exitDy=0;entryX=0.5;entryY=0;entryDx=0;entryDy=0;" edge="1" parent="cGUAd-4T3Jj6xi8aEvbd-27" source="cGUAd-4T3Jj6xi8aEvbd-44" target="cGUAd-4T3Jj6xi8aEvbd-36">
          <mxGeometry relative="1" as="geometry" />
        </mxCell>
        <mxCell id="cGUAd-4T3Jj6xi8aEvbd-44" value="&lt;div&gt;INFO&lt;/div&gt;&lt;div&gt;Czy wewnątrz tego coś może być.np Where ... &lt;br&gt;&lt;/div&gt;" style="text;html=1;whiteSpace=wrap;overflow=hidden;rounded=0;fillColor=#6d8764;fontColor=#ffffff;strokeColor=#3A5431;" vertex="1" parent="cGUAd-4T3Jj6xi8aEvbd-27">
          <mxGeometry x="927.65" y="20" width="120" height="65" as="geometry" />
        </mxCell>
        <mxCell id="cGUAd-4T3Jj6xi8aEvbd-75" style="edgeStyle=orthogonalEdgeStyle;rounded=0;orthogonalLoop=1;jettySize=auto;html=1;exitX=0.5;exitY=1;exitDx=0;exitDy=0;entryX=1;entryY=0.5;entryDx=0;entryDy=0;" edge="1" parent="cGUAd-4T3Jj6xi8aEvbd-27" source="cGUAd-4T3Jj6xi8aEvbd-46" target="cGUAd-4T3Jj6xi8aEvbd-41">
          <mxGeometry relative="1" as="geometry" />
        </mxCell>
        <mxCell id="cGUAd-4T3Jj6xi8aEvbd-46" value="&lt;div&gt;Wrzuć na stos ten token.&lt;/div&gt;&lt;div&gt;W celu zapamiętania&amp;nbsp; &lt;br&gt;&lt;/div&gt;&lt;div&gt;dalszej części kodu tokenu&lt;/div&gt;" style="whiteSpace=wrap;html=1;shadow=0;strokeWidth=1;spacing=6;spacingTop=-4;" vertex="1" parent="cGUAd-4T3Jj6xi8aEvbd-27">
          <mxGeometry x="1266.25" y="92.5" width="165" height="90" as="geometry" />
        </mxCell>
        <mxCell id="cGUAd-4T3Jj6xi8aEvbd-52" value="Czy" style="rhombus;whiteSpace=wrap;html=1;shadow=0;fontFamily=Helvetica;fontSize=12;align=center;strokeWidth=1;spacing=6;spacingTop=-4;" vertex="1" parent="cGUAd-4T3Jj6xi8aEvbd-27">
          <mxGeometry x="95" y="210" width="100" height="80" as="geometry" />
        </mxCell>
        <mxCell id="cGUAd-4T3Jj6xi8aEvbd-54" value="" style="edgeStyle=orthogonalEdgeStyle;rounded=0;orthogonalLoop=1;jettySize=auto;html=1;exitX=1;exitY=0.5;exitDx=0;exitDy=0;" edge="1" parent="cGUAd-4T3Jj6xi8aEvbd-27" source="cGUAd-4T3Jj6xi8aEvbd-53" target="cGUAd-4T3Jj6xi8aEvbd-31">
          <mxGeometry relative="1" as="geometry" />
        </mxCell>
        <mxCell id="cGUAd-4T3Jj6xi8aEvbd-53" value="Dodaj nazwę" style="whiteSpace=wrap;html=1;shadow=0;strokeWidth=1;spacing=6;spacingTop=-4;" vertex="1" parent="cGUAd-4T3Jj6xi8aEvbd-27">
          <mxGeometry x="25" y="100" width="120" height="60" as="geometry" />
        </mxCell>
        <mxCell id="cGUAd-4T3Jj6xi8aEvbd-60" style="edgeStyle=orthogonalEdgeStyle;rounded=0;orthogonalLoop=1;jettySize=auto;html=1;exitX=1;exitY=0.5;exitDx=0;exitDy=0;entryX=0;entryY=0.5;entryDx=0;entryDy=0;" edge="1" parent="cGUAd-4T3Jj6xi8aEvbd-27" source="cGUAd-4T3Jj6xi8aEvbd-55" target="cGUAd-4T3Jj6xi8aEvbd-58">
          <mxGeometry relative="1" as="geometry" />
        </mxCell>
        <mxCell id="cGUAd-4T3Jj6xi8aEvbd-55" value="&lt;div&gt;Pobierz info o tokenie&lt;/div&gt;&lt;div&gt;(z jakiegoś enuma / mapy)&lt;/div&gt;&lt;div&gt;Może być enum i metoda fromString czy jakoś tak&lt;br&gt;&lt;/div&gt;" style="whiteSpace=wrap;html=1;shadow=0;strokeWidth=1;spacing=6;spacingTop=-4;" vertex="1" parent="cGUAd-4T3Jj6xi8aEvbd-27">
          <mxGeometry x="365" y="70" width="120" height="120" as="geometry" />
        </mxCell>
        <mxCell id="cGUAd-4T3Jj6xi8aEvbd-63" value="" style="edgeStyle=orthogonalEdgeStyle;rounded=0;orthogonalLoop=1;jettySize=auto;html=1;" edge="1" parent="cGUAd-4T3Jj6xi8aEvbd-27" source="cGUAd-4T3Jj6xi8aEvbd-58" target="cGUAd-4T3Jj6xi8aEvbd-62">
          <mxGeometry relative="1" as="geometry" />
        </mxCell>
        <mxCell id="cGUAd-4T3Jj6xi8aEvbd-64" value="&lt;div&gt;TAK, &lt;br&gt;&lt;/div&gt;&lt;div&gt;Czyli nie może być wewnątrz tego tokenu&lt;br&gt;&lt;/div&gt;" style="edgeLabel;html=1;align=center;verticalAlign=middle;resizable=0;points=[];" vertex="1" connectable="0" parent="cGUAd-4T3Jj6xi8aEvbd-63">
          <mxGeometry x="-0.0758" y="1" relative="1" as="geometry">
            <mxPoint as="offset" />
          </mxGeometry>
        </mxCell>
        <mxCell id="cGUAd-4T3Jj6xi8aEvbd-71" style="edgeStyle=orthogonalEdgeStyle;rounded=0;orthogonalLoop=1;jettySize=auto;html=1;exitX=1;exitY=0.5;exitDx=0;exitDy=0;entryX=0;entryY=0.5;entryDx=0;entryDy=0;" edge="1" parent="cGUAd-4T3Jj6xi8aEvbd-27" source="cGUAd-4T3Jj6xi8aEvbd-58" target="cGUAd-4T3Jj6xi8aEvbd-36">
          <mxGeometry relative="1" as="geometry" />
        </mxCell>
        <mxCell id="cGUAd-4T3Jj6xi8aEvbd-72" value="&lt;div&gt;Nie,&lt;/div&gt;&lt;div&gt;cyli ma być zagnieżdżony&lt;br&gt;&lt;/div&gt;" style="edgeLabel;html=1;align=center;verticalAlign=middle;resizable=0;points=[];" vertex="1" connectable="0" parent="cGUAd-4T3Jj6xi8aEvbd-71">
          <mxGeometry x="0.0216" y="-1" relative="1" as="geometry">
            <mxPoint as="offset" />
          </mxGeometry>
        </mxCell>
        <mxCell id="cGUAd-4T3Jj6xi8aEvbd-58" value="&lt;div&gt;Czy jest terminatorem tokenu ze stosu?&lt;/div&gt;&lt;div&gt;Lub symbolem wymuszenia&lt;br&gt;&lt;/div&gt;" style="rhombus;whiteSpace=wrap;html=1;shadow=0;fontFamily=Helvetica;fontSize=12;align=center;strokeWidth=1;spacing=6;spacingTop=-4;" vertex="1" parent="cGUAd-4T3Jj6xi8aEvbd-27">
          <mxGeometry x="545" y="100" width="225" height="140" as="geometry" />
        </mxCell>
        <mxCell id="cGUAd-4T3Jj6xi8aEvbd-61" style="edgeStyle=orthogonalEdgeStyle;rounded=0;orthogonalLoop=1;jettySize=auto;html=1;exitX=0.5;exitY=1;exitDx=0;exitDy=0;entryX=0.5;entryY=0;entryDx=0;entryDy=0;" edge="1" parent="cGUAd-4T3Jj6xi8aEvbd-27" source="cGUAd-4T3Jj6xi8aEvbd-59" target="cGUAd-4T3Jj6xi8aEvbd-58">
          <mxGeometry relative="1" as="geometry" />
        </mxCell>
        <mxCell id="cGUAd-4T3Jj6xi8aEvbd-59" value="&lt;div&gt;AntyAlternatywa&lt;/div&gt;&lt;div&gt;(W tedy na odwrót warunek)&lt;/div&gt;&lt;div&gt;Czy ten token może być zagnieżdżony ? (to chyba lepiej)&lt;br&gt;&lt;/div&gt;" style="text;html=1;whiteSpace=wrap;overflow=hidden;rounded=0;fillColor=#6d8764;fontColor=#ffffff;strokeColor=#3A5431;" vertex="1" parent="cGUAd-4T3Jj6xi8aEvbd-27">
          <mxGeometry x="535" y="35" width="175" height="65" as="geometry" />
        </mxCell>
        <mxCell id="cGUAd-4T3Jj6xi8aEvbd-67" style="edgeStyle=orthogonalEdgeStyle;rounded=0;orthogonalLoop=1;jettySize=auto;html=1;exitX=0.5;exitY=1;exitDx=0;exitDy=0;entryX=0;entryY=1;entryDx=0;entryDy=0;" edge="1" parent="cGUAd-4T3Jj6xi8aEvbd-27" source="cGUAd-4T3Jj6xi8aEvbd-62" target="cGUAd-4T3Jj6xi8aEvbd-58">
          <mxGeometry relative="1" as="geometry">
            <mxPoint x="592.5" y="405" as="sourcePoint" />
            <mxPoint x="515.0000000000002" y="175" as="targetPoint" />
            <Array as="points">
              <mxPoint x="623" y="405" />
              <mxPoint x="623" y="440" />
              <mxPoint x="485" y="440" />
              <mxPoint x="485" y="210" />
            </Array>
          </mxGeometry>
        </mxCell>
        <mxCell id="cGUAd-4T3Jj6xi8aEvbd-68" value="&lt;div&gt;Bo może ychodzić z wielu &lt;br&gt;&lt;/div&gt;&lt;div&gt;&quot;zagnieżdżeń&quot;&lt;/div&gt;&lt;div&gt;jednocześnie&lt;/div&gt;&lt;div&gt;&lt;br&gt;&lt;/div&gt;&lt;div&gt;np wielokrotne podzapytanie &lt;br&gt;&lt;/div&gt;&lt;div&gt;i nagle jest coś innego&lt;br&gt;&lt;/div&gt;" style="edgeLabel;html=1;align=center;verticalAlign=middle;resizable=0;points=[];" vertex="1" connectable="0" parent="cGUAd-4T3Jj6xi8aEvbd-67">
          <mxGeometry x="0.0643" y="2" relative="1" as="geometry">
            <mxPoint y="12" as="offset" />
          </mxGeometry>
        </mxCell>
        <mxCell id="cGUAd-4T3Jj6xi8aEvbd-62" value="&lt;div&gt;Zdejmij ze stosu,&lt;/div&gt;&lt;div&gt;wygeneruj dla niego kod.&lt;br&gt;&lt;/div&gt;" style="whiteSpace=wrap;html=1;shadow=0;strokeWidth=1;spacing=6;spacingTop=-4;" vertex="1" parent="cGUAd-4T3Jj6xi8aEvbd-27">
          <mxGeometry x="562.5" y="350" width="120" height="60" as="geometry" />
        </mxCell>
        <mxCell id="cGUAd-4T3Jj6xi8aEvbd-69" value="Symbol wymuszenia - kończy aktualny token, tak aby kolejny token odnosił się do wyższego kontekstu o 1" style="text;html=1;whiteSpace=wrap;overflow=hidden;rounded=0;fillColor=#6d8764;fontColor=#ffffff;strokeColor=#3A5431;" vertex="1" parent="cGUAd-4T3Jj6xi8aEvbd-27">
          <mxGeometry x="276.25" y="210" width="175" height="65" as="geometry" />
        </mxCell>
        <mxCell id="cGUAd-4T3Jj6xi8aEvbd-70" style="edgeStyle=orthogonalEdgeStyle;rounded=0;orthogonalLoop=1;jettySize=auto;html=1;entryX=0.437;entryY=0.94;entryDx=0;entryDy=0;entryPerimeter=0;" edge="1" parent="cGUAd-4T3Jj6xi8aEvbd-27" source="cGUAd-4T3Jj6xi8aEvbd-69" target="cGUAd-4T3Jj6xi8aEvbd-58">
          <mxGeometry relative="1" as="geometry" />
        </mxCell>
        <mxCell id="cGUAd-4T3Jj6xi8aEvbd-73" value="Przejdź do kolejnego" style="strokeWidth=2;html=1;shape=mxgraph.flowchart.terminator;whiteSpace=wrap;" vertex="1" parent="cGUAd-4T3Jj6xi8aEvbd-27">
          <mxGeometry x="616.25" y="560" width="100" height="60" as="geometry" />
        </mxCell>
        <mxCell id="cGUAd-4T3Jj6xi8aEvbd-74" style="edgeStyle=orthogonalEdgeStyle;rounded=0;orthogonalLoop=1;jettySize=auto;html=1;exitX=0.5;exitY=1;exitDx=0;exitDy=0;entryX=0.5;entryY=0;entryDx=0;entryDy=0;entryPerimeter=0;" edge="1" parent="cGUAd-4T3Jj6xi8aEvbd-27" source="cGUAd-4T3Jj6xi8aEvbd-41" target="cGUAd-4T3Jj6xi8aEvbd-73">
          <mxGeometry relative="1" as="geometry" />
        </mxCell>
      </root>
    </mxGraphModel>
  </diagram>
</mxfile>
